<svg xmlns="http://www.w3.org/2000/svg" version="1.1" xlink="http://www.w3.org/1999/xlink" xmlns:svgjs="http://svgjs.com/svgjs" width="300" height="122.09611331065031"><defs id="SvgjsDefs10741"><linearGradient id="SvgjsLinearGradient6E8GWPS-0" gradientUnits="userSpaceOnUse" x1="8.015000000000013" y1="91.985" x2="91.985" y2="8.015000000000002"><stop id="SvgjsStop10744" stop-color="#11e45e" offset="0.05"/><stop id="SvgjsStop10745" stop-color="#086d2d" offset="0.95"/></linearGradient></defs><g id="SvgjsG10742" transform="scale(0.8755171043960125)" opacity="1"><g id="SvgjsG10746" class="5hBlkyL9K" transform="translate(-8.946369001796251, -19.73569001796252) scale(1.7892738003592503)" light-content="false" fill="url(#SvgjsLinearGradient6E8GWPS-0)"><path d="M50 11.031l-1.625 2.813-3.719 6.469-.531.937.531.938 25.75 44.593h-24.75l-.531.938-3.719 6.5L39.781 77H43l41.875.031L88.094 77l-1.625-2.813-34.844-60.343L50 11.03zM43.094 23l-1.625 2.813L6.625 86.186 5 88.97h11.813l.53-.938 25.75-44.594 11.844 20.47.5.937H67.25l-1.625-2.781-20.906-36.25L43.094 23zm-.125 24.125l-1.594 2.813-20.938 36.218-1.625 2.813H95l-1.625-2.813-3.719-6.469-.562-.937H36.53l11.813-20.469.531-.937-.531-.938-3.75-6.468-1.625-2.813z" overflow="visible" color="#000" style="text-indent: 0; text-transform: none; block-progression: tb"/></g><g id="SvgjsG10747" class="text" transform="translate(263.21464203233256, 72.38799999999999) scale(1)" light-content="false" fill="#0d0d0d"><path d="M-78.24 9.48C-79.92 9.48 -81.46 9.18 -82.86 8.58L-84.18 12.48C-82.34 13.2 -80.24 13.56 -77.88 13.56C-71.56 13.56 -68.4 10.38 -68.4 4.02L-68.4 -34.32L-73.56 -34.32L-73.56 4.02C-73.56 7.66 -75.12 9.48 -78.24 9.48ZM-70.98 -40.08C-68.86 -40.08 -67.8 -41.19 -67.8 -43.41C-67.8 -45.63 -68.86 -46.74 -70.98 -46.74C-73.02 -46.74 -74.04 -45.63 -74.04 -43.41C-74.04 -41.19 -73.02 -40.08 -70.98 -40.08Z M-44.22 0.84C-36.06 0.84 -31.6 -2.78 -30.84 -10.02L-35.1 -10.26C-35.5 -5.66 -38.54 -3.36 -44.22 -3.36C-47.7 -3.36 -50.14 -4.39 -51.54 -6.45C-52.94 -8.51 -53.66 -11.9 -53.7 -16.62L-30.3 -16.62L-30.3 -17.88C-30.3 -29.4 -35.02 -35.16 -44.46 -35.16C-54.02 -35.16 -58.8 -29.16 -58.8 -17.16C-58.8 -11.12 -57.68 -6.61 -55.44 -3.63C-53.2 -0.65 -49.46 0.84 -44.22 0.84ZM-37.74 -28.23C-36.42 -26.41 -35.66 -23.82 -35.46 -20.46L-53.58 -20.46C-53.3 -23.74 -52.48 -26.31 -51.12 -28.17C-49.76 -30.03 -47.52 -30.96 -44.4 -30.96C-41.28 -30.96 -39.06 -30.05 -37.74 -28.23Z M-26.1 -30.78L-20.22 -30.78L-20.22 -7.86C-20.22 -5.42 -19.88 -3.48 -19.2 -2.04C-18.8 -1.08 -18.12 -0.36 -17.16 0.12C-16.2 0.6 -14.97 0.84 -13.47 0.84C-11.97 0.84 -10.14 0.52 -7.98 -0.12L-8.58 -3.6C-9.98 -3.28 -11.16 -3.12 -12.12 -3.12C-13.08 -3.12 -13.81 -3.49 -14.31 -4.23C-14.81 -4.97 -15.06 -6.24 -15.06 -8.04L-15.06 -30.78L-7.8 -30.78L-7.8 -34.32L-15.06 -34.32L-15.06 -42.6L-20.22 -40.56L-20.22 -34.32L-26.1 -34.32Z M10.5 -42.42C12.26 -42.42 13.82 -42.14 15.18 -41.58L16.5 -45.48C14.62 -46.16 12.5 -46.5 10.14 -46.5C3.82 -46.5 0.66 -43.32 0.66 -36.96L0.66 -34.32L-3.3 -34.32L-3.3 -30.78L0.66 -30.78L0.66 0L5.82 0L5.82 -30.78L13.74 -30.78L13.74 -34.32L5.82 -34.32L5.82 -36.96C5.82 -40.6 7.38 -42.42 10.5 -42.42ZM25.38 0L25.38 -46.2L20.22 -45.48L20.22 0Z M38.1 -34.32L38.1 0L43.26 0L43.26 -34.32ZM40.68 -40.08C42.8 -40.08 43.86 -41.19 43.86 -43.41C43.86 -45.63 42.8 -46.74 40.68 -46.74C38.64 -46.74 37.62 -45.63 37.62 -43.41C37.62 -41.19 38.64 -40.08 40.68 -40.08Z M55.56 0L64.56 -13.62L73.68 0L79.44 0L67.74 -17.46L78.84 -34.32L73.38 -34.32L64.98 -21.54L56.46 -34.32L50.7 -34.32L61.86 -17.64L50.1 0Z"/></g><g id="SvgjsG10748" class="text" transform="translate(259.86464203233254, 113.528) scale(1)" light-content="false" fill="#086d2d"><path d="M-37.94 -14.6L-37.94 0L-36.18 0L-36.18 -6.72L-31.04 -6.72L-31.04 -8.12L-36.18 -8.12L-36.18 -13.2L-30.58 -13.2L-30.58 -14.6Z M-25.86 0L-25.86 -15.4L-27.58 -15.16L-27.58 0Z M-21.62 -11.44L-21.62 0L-19.9 0L-19.9 -11.44ZM-20.76 -13.36C-20.05 -13.36 -19.7 -13.73 -19.7 -14.47C-19.7 -15.21 -20.05 -15.58 -20.76 -15.58C-21.44 -15.58 -21.78 -15.21 -21.78 -14.47C-21.78 -13.73 -21.44 -13.36 -20.76 -13.36Z M-15.8 0L-12.8 -4.54L-9.76 0L-7.84 0L-11.74 -5.82L-8.04 -11.44L-9.86 -11.44L-12.66 -7.18L-15.5 -11.44L-17.42 -11.44L-13.7 -5.88L-17.62 0Z M-6.32 -5.68L0.72 -5.68L0.72 -7.04L-6.32 -7.04Z M4.2 -14.6L4.2 0L5.96 0L5.96 -6.72L11.1 -6.72L11.1 -8.12L5.96 -8.12L5.96 -13.2L11.56 -13.2L11.56 -14.6Z M16.28 0L16.28 -15.4L14.56 -15.16L14.56 0Z M24.34 0.28C27.06 0.28 28.55 -0.93 28.8 -3.34L27.38 -3.42C27.25 -1.89 26.23 -1.12 24.34 -1.12C23.18 -1.12 22.37 -1.46 21.9 -2.15C21.43 -2.84 21.19 -3.97 21.18 -5.54L28.98 -5.54L28.98 -5.96C28.98 -9.8 27.41 -11.72 24.26 -11.72C21.07 -11.72 19.48 -9.72 19.48 -5.72C19.48 -3.71 19.85 -2.2 20.6 -1.21C21.35 -0.22 22.59 0.28 24.34 0.28ZM26.5 -9.41C26.94 -8.8 27.19 -7.94 27.26 -6.82L21.22 -6.82C21.31 -7.91 21.59 -8.77 22.04 -9.39C22.49 -10.01 23.24 -10.32 24.28 -10.32C25.32 -10.32 26.06 -10.02 26.5 -9.41Z M31.94 0L34.94 -4.54L37.98 0L39.9 0L36 -5.82L39.7 -11.44L37.88 -11.44L35.08 -7.18L32.24 -11.44L30.32 -11.44L34.04 -5.88L30.12 0Z"/></g></g></svg>